OpenSim_Sub04_EMGStiffKnee_GRF.mot
version=1
nRows=69
nColumns=19
inDegrees=no
endheader
time	lFx	lFy	lFz	lCOPx	lCOPy	lCOPz	rFx	rFy	rFz	rCOPx	rCOPy	rCOPz	lMx	lMy	lMz	rMx	rMy	rMz
62.07000000	-5.60200149	344.09522047	20.50834813	0.59256895	0	-0.62611256	62.75746770	438.39697708	-23.10984958	0.47672821	0	-0.40235813	0	1.40003927	0	0	3.19550723	0
62.08000000	-5.34585959	398.67737802	26.10821696	0.58535347	0	-0.62304090	60.89262097	385.55364482	-17.16007208	0.47509755	0	-0.40448825	0	1.77884736	0	0	2.78157742	0
62.09000000	-4.73777413	447.47388933	31.44021552	0.57939677	0	-0.62198786	55.30687700	326.55116568	-11.68558875	0.47689592	0	-0.40869457	0	2.03889108	0	0	2.14687745	-0.00000000
62.10000000	-3.59572169	491.56587043	36.62277748	0.57438549	0	-0.62239468	45.90628418	264.24351880	-7.60187219	0.48292322	0	-0.41516438	0	2.18533651	0	0	1.49650799	0.00000000
62.11000000	-1.75913456	532.02900268	41.99824512	0.56968067	0	-0.62344533	33.32791461	202.75274659	-5.16143420	0.48981659	0	-0.42110535	0	2.08420682	0	0	0.94073937	-0.00000000
62.12000000	0.83296724	569.42764317	47.65873974	0.56467121	0	-0.62463036	18.95546401	146.23887831	-4.04223596	0.48570172	0	-0.41696416	0	1.73254098	0	0	0.47281145	0
62.13000000	4.07761090	603.38387775	53.28779643	0.55905957	0	-0.62569325	5.02950535	97.65326427	-3.99259854	0.44832893	0	-0.38411642	0	1.23128411	0	0	0.17290764	0
62.14000000	7.65418157	632.69096268	58.45623323	0.55299555	0	-0.62646248	-5.75430040	58.93535099	-4.40927938	0.35263093	0	-0.30118382	0	0.59779727	0	0	0.11556712	0
62.15000000	11.10253890	656.47655585	62.69784740	0.54668896	0	-0.62693759	-10.48896464	30.47655824	-4.01790568	0.20131556	0	-0.17229350	0	-0.02400545	0	0	0.15945181	0.00000000
62.16000000	14.30161110	674.59823085	65.66773196	0.54032404	0	-0.62717991	-8.40423529	11.54013469	-2.33732229	0.07060812	0	-0.06079270	0	-0.43593954	0	0	0.10573799	0
62.17000000	17.37986495	687.26370702	67.31996850	0.53408183	0	-0.62729855	-4.14802612	1.80546058	-0.52146001	0.00386747	0	-0.00360323	0	-0.59027601	0	0	0.04324666	0.00000000
62.18000000	20.35025552	694.59539480	67.82006615	0.52813926	0	-0.62737549	-1.16298876	-1.13235101	0.01098116	-0.01550103	0	0.01312565	0	-0.54625337	0	0	0.00700117	0.00000000
62.19000000	23.01434457	696.86767074	67.40473850	0.52251350	0	-0.62745643	0.12275499	-0.99000346	0.05990116	-0.01352442	0	0.01153855	0	-0.38213669	0	0	-0.00575731	-0.00000000
62.20000000	25.32125764	694.82970710	66.46495474	0.51707872	0	-0.62760854	0.36896457	-0.18790502	0.11119022	-0.00682202	0	0.00584648	0	-0.18803818	0	0	-0.00649071	0.00000000
62.21000000	27.48176537	689.36707218	65.42465081	0.51175370	0	-0.62785281	0.25278574	0.36388390	-0.08572158	-0.00193656	0	0.00167332	0	-0.02625483	0	0	-0.00371765	0
62.22000000	29.53465352	681.25423431	64.47772101	0.50650017	0	-0.62818873	0.09483420	0.53535923	-0.18464753	0.00023691	0	-0.00019199	0	0.07084454	0	0	-0.00128724	-0.00000000
62.23000000	31.24149287	671.37494169	63.66087320	0.50137579	0	-0.62858490	-0.01129610	0.52204539	-0.09543967	0.00070180	0	-0.00059616	0	0.07276285	0	0	-0.00005797	-0.00000000
62.24000000	32.36092239	660.80139695	62.93154370	0.49639088	0	-0.62898607	-0.06613032	0.48009174	-0.01229807	0.00050362	0	-0.00043026	0	-0.02012265	0	0	0.00029272	0
62.25000000	33.00871426	650.67684189	62.17232886	0.49148159	0	-0.62939235	-0.08241403	0.46051239	0.07239598	0.00022113	0	-0.00018984	0	-0.13946884	0	0	0.00025146	0.00000000
62.26000000	33.39540829	641.87299195	61.37272751	0.48656621	0	-0.62974746	-0.07792966	0.45895885	0.10620688	0.00004558	0	-0.00003968	0	-0.25981451	0	0	0.00012568	-0.00000000
62.27000000	33.72580118	634.82539078	60.57073733	0.48153893	0	-0.62997257	-0.07376849	0.49623976	-0.03882648	-0.00002135	0	0.00001795	0	-0.37248133	0	0	0.00003505	-0.00000000
62.28000000	34.05270890	629.69842175	59.81558368	0.47653262	0	-0.63006775	-0.10142599	0.53516716	-0.21759288	-0.00002864	0	0.00002464	0	-0.46589588	0	0	-0.00000506	0.00000000
62.29000000	34.42687936	626.29903372	59.16183688	0.47155967	0	-0.63007474	-0.12162175	0.50625371	-0.30807716	-0.00001641	0	0.00001459	0	-0.55994741	0	0	-0.00001381	0.00000000
62.30000000	35.01539717	624.05150181	58.58094944	0.46643034	0	-0.63000697	-0.13243955	0.45978422	-0.33693470	-0.00000469	0	0.00000476	0	-0.63783471	0	0	-0.00001058	0.00000000
62.31000000	35.89249834	622.38293186	57.98992617	0.46100404	0	-0.62985936	-0.11075551	0.40434831	-0.36809357	-0.00000049	0	0.00000051	0	-0.68511365	0	0	-0.00000542	0.00000000
62.32000000	36.98801679	621.04362251	57.32155363	0.45534935	0	-0.62963253	-0.07195439	0.34688763	-0.39205466	-0.00000603	0	0.00000271	0	-0.68389222	0	0	-0.00000023	-0.00000000
62.33000000	38.16372281	620.21003810	56.60847274	0.44975187	0	-0.62935295	-0.02199862	0.21791970	-0.39186559	-0.00002190	0	0.00001092	0	-0.66393274	0	0	0.00000734	0.00000000
62.34000000	39.45584739	620.13837030	55.87585137	0.44419861	0	-0.62904343	0.00067744	0.03052617	-0.36919576	-0.00004247	0	0.00002177	0	-0.59363056	0	0	0.00001952	0.00000000
62.35000000	40.91925890	621.10491690	55.24580297	0.43864924	0	-0.62873473	-0.01424153	-0.15004833	-0.29995750	-0.00004417	0	0.00002288	0	-0.49298879	0	0	0.00003212	-0.00000000
62.36000000	42.53680051	623.13058416	54.77658413	0.43331416	0	-0.62849109	-0.03197026	-0.21456985	-0.27461795	0.00002770	0	-0.00001404	0	-0.34849274	0	0	0.00002541	-0.00000000
62.37000000	44.14829926	625.63018170	54.47955452	0.42824110	0	-0.62833363	-0.02067184	-0.16771276	-0.27374381	0.00025290	0	-0.00013031	0	-0.19806061	0	0	-0.00004317	-0.00000000
62.38000000	45.69517905	627.70317621	54.29886516	0.42320813	0	-0.62822443	0.04274817	-0.07471944	-0.21163012	0.00066867	0	-0.00034547	0	-0.10806365	0	0	-0.00022799	-0.00000000
62.39000000	47.28712181	628.80663903	54.16942502	0.41795080	0	-0.62811810	0.16750800	-0.01219301	-0.14886211	0.00108627	0	-0.00056253	0	-0.07107734	0	0	-0.00053359	0
62.40000000	48.98890236	629.11942918	54.14578532	0.41253500	0	-0.62798782	0.29115666	0.01388077	-0.13867790	0.00078715	0	-0.00041063	0	-0.10842590	0	0	-0.00076770	-0.00000000
62.41000000	50.69895536	629.13060719	54.20400875	0.40730651	0	-0.62784802	0.25515152	0.26637185	-0.17477820	-0.00171129	0	0.00087704	0	-0.15663020	0	0	-0.00032504	0.00000000
62.42000000	52.18237837	628.96292302	54.34841725	0.40246483	0	-0.62773546	-0.22586287	1.13017280	-0.27231518	-0.00821941	0	0.00423981	0	-0.22562923	0	0	0.00191674	-0.00000000
62.43000000	53.41064993	628.03900649	54.47980776	0.39775652	0	-0.62763322	-1.54620425	2.82181128	-0.49727772	-0.01865303	0	0.00964339	0	-0.32548587	0	0	0.00709558	0.00000000
62.44000000	54.47802074	625.94748379	54.51234034	0.39307353	0	-0.62753164	-3.93042463	5.20051827	-0.85374787	-0.02589002	0	0.01342093	0	-0.44032871	0	0	0.01443632	-0.00000000
62.45000000	55.39936193	622.69208016	54.36993436	0.38857883	0	-0.62746016	-7.70387960	8.27351722	-1.24263000	-0.00846393	0	0.00448620	0	-0.49629130	0	0	0.01725315	0.00000000
62.46000000	56.01837172	618.41434935	54.05569629	0.38443968	0	-0.62743059	-13.27896818	12.98855007	-1.42526415	0.07228186	0	-0.03716791	0	-0.50049624	0	0	-0.00196579	0.00000000
62.47000000	56.33848084	612.96900251	53.55670691	0.38034649	0	-0.62741921	-20.54156644	21.61034246	-0.95599242	0.25319452	0	-0.13070268	0	-0.52319836	0	0	-0.07143498	0
62.48000000	56.61653581	606.05379972	52.70308126	0.37587633	0	-0.62742218	-27.66484314	37.96516292	0.38245111	0.50301656	0	-0.26002766	0	-0.50176447	0	0	-0.21144981	0.00000000
62.49000000	57.08119124	597.21751747	51.32130378	0.37093431	0	-0.62748658	-30.46589171	67.20352454	2.38347607	0.70409944	0	-0.36040764	0	-0.40625768	0	0	-0.42104590	0
62.50000000	57.70864296	585.86520574	49.38537788	0.36567847	0	-0.62762663	-24.97275591	113.44889884	4.02238113	0.80826412	0	-0.40754281	0	-0.23907925	0	0	-0.69125622	0
62.51000000	58.12249625	571.35001938	46.93556397	0.36023589	0	-0.62780394	-15.49029891	174.96718171	3.25893619	0.83948549	0	-0.41879960	0	0.01178754	0	0	-0.92432091	0
62.52000000	58.01612804	553.06996702	43.97141502	0.35481920	0	-0.62793924	-12.99860065	242.77736026	-1.09425578	0.83518865	0	-0.41551637	0	0.33046013	0	0	-0.93196298	0
62.53000000	57.14226366	530.81694655	40.37610481	0.34956455	0	-0.62794578	-22.39771794	307.42283221	-6.96675565	0.82387435	0	-0.40959956	0	0.67076814	0	0	-0.96122466	0.00000000
62.54000000	55.17221564	505.30299032	36.12399297	0.34463389	0	-0.62777437	-40.95646152	364.67022722	-13.90902442	0.81792010	0	-0.40541956	0	1.03904793	0	0	-0.96589677	0.00000000
62.55000000	51.75225724	477.30878751	31.42220540	0.34014061	0	-0.62741950	-62.53111981	416.68551743	-20.87848204	0.81784360	0	-0.40351021	0	1.37813894	0	0	-1.03996734	0
62.56000000	46.90554589	446.83349951	26.53432864	0.33606342	0	-0.62684021	-81.78405935	467.11619670	-26.18838690	0.81953357	0	-0.40304141	0	1.60192055	0	0	-1.27953179	0
62.57000000	41.05186291	413.45508213	21.61657604	0.33233553	0	-0.62602731	-96.40562213	517.50706690	-29.63696239	0.82001048	0	-0.40315573	0	1.69196384	0	0	-1.54835774	0.00000000
62.58000000	34.67541768	376.90961838	16.87108884	0.32879433	0	-0.62496968	-106.63512048	567.33160464	-32.10582135	0.81845610	0	-0.40341824	0	1.64251374	0	0	-1.74649769	-0.00000000
62.59000000	28.06853166	337.38720755	12.56455029	0.32560923	0	-0.62370493	-113.24618439	614.75916792	-34.30043256	0.81519687	0	-0.40360010	0	1.43129725	0	0	-1.89596295	0
62.60000000	21.34566239	295.68621772	8.80858018	0.32291036	0	-0.62273397	-116.48999780	657.48008553	-36.78604732	0.81088040	0	-0.40363262	0	1.09984284	0	0	-2.02367878	0.00000000
62.61000000	14.61285055	253.07594216	5.74343274	0.32088377	0	-0.62325708	-116.79739985	693.53231821	-39.79994273	0.80605973	0	-0.40348598	0	0.64294279	0	0	-2.14835023	0
62.62000000	7.98794669	210.97370041	3.47166527	0.32016248	0	-0.62677190	-115.13791606	721.34210178	-43.09174576	0.80106912	0	-0.40314390	0	0.01061999	0	0	-2.34325012	-0.00000000
62.63000000	1.72632500	170.87283875	1.78689214	0.32079692	0	-0.63347699	-112.50091372	740.46898080	-46.49405055	0.79610847	0	-0.40268407	0	-0.72760986	0	0	-2.57534178	0
62.64000000	-4.05599473	134.08344215	0.55806006	0.31962684	0	-0.63792945	-109.51571178	751.94451621	-49.89348834	0.79128345	0	-0.40216576	0	-1.47586763	0	0	-2.78157906	0
62.65000000	-9.34350733	101.41491892	-0.10061390	0.30719286	0	-0.62306032	-106.12997657	757.03565411	-52.94826278	0.78650222	0	-0.40160428	0	-2.17239860	0	0	-3.02109130	0
62.66000000	-13.18119955	72.84372079	-0.50782936	0.26872500	0	-0.55852898	-102.17580347	756.93221083	-55.44447250	0.78174759	0	-0.40099024	0	-2.45650924	0	0	-3.25297006	0
62.67000000	-13.91110521	47.97908568	-1.06512471	0.19313101	0	-0.41504107	-97.76775610	752.54747559	-57.34989551	0.77708633	0	-0.40030658	0	-2.09384570	0	0	-3.45002603	0.00000000
62.68000000	-10.42857476	26.94416875	-2.07805895	0.09676469	0	-0.21692585	-93.08505513	744.48092772	-58.74624746	0.77237049	0	-0.39957665	0	-1.25921981	0	0	-3.70680285	0.00000000
62.69000000	-4.36448084	11.11206333	-3.48157314	0.02729611	0	-0.06607847	-88.21419496	733.56190583	-59.90374084	0.76742684	0	-0.39884847	0	-0.46928607	0	0	-3.97185444	-0.00000000
62.70000000	0.71292964	1.99681457	-4.54327778	-0.00349948	0	0.00390331	-83.14728266	720.98211232	-60.85860222	0.76225746	0	-0.39814672	0	-0.04648403	0	0	-4.15255986	0
62.71000000	3.29611976	-1.49595391	-4.98673966	-0.01002156	0	0.02057505	-77.89508055	707.60421403	-61.28620766	0.75692762	0	-0.39748625	0	0.08626267	0	0	-4.34988899	0
62.72000000	4.05315490	-1.99066332	-5.16657667	-0.00716137	0	0.01556825	-72.58901928	693.45542269	-61.10289486	0.75140577	0	-0.39691560	0	0.08184584	0	0	-4.54430041	0
62.73000000	3.97517072	-1.41753998	-5.15441435	-0.00313409	0	0.00713263	-67.47345626	678.16395902	-60.48428213	0.74573660	0	-0.39642682	0	0.04327470	0	0	-4.66806791	0
62.74000000	3.71080309	-0.75718373	-5.14105741	-0.00063963	0	0.00164812	-62.75024783	661.38185073	-59.50832430	0.73988258	0	-0.39601887	0	0.01332466	0	0	-4.87231079	0
62.75000000	3.51278388	-0.28232374	-5.12363856	0.00031055	0	-0.00055151	-58.58722817	643.59712060	-58.39137419	0.73382544	0	-0.39567481	0	-0.00066363	0	0	-5.11684370	0
